<?xml version="1.0"?>
<svg width="100pt" height="100pt" version="1.1" viewBox="0 0 100 100" xmlns="http://www.w3.org/2000/svg">
 <path d="m89.492 26.406c-3.2617 2.1094-6.4766 4.1094-9.9492 5.4141-2.4141 0.90625-4.6719 1.3594-6.8047 1.3594-1.6094 0-3.1523-0.25781-4.6445-0.76953-0.011719-0.003906-0.023438-0.007812-0.035156-0.011718-5.1133-1.9609-9.2188-3.4375-13.887-4.7383-4.8398-1.3438-4.832-4.2656-4.6055-5.457 0.015625-0.089844 0.035156-0.17578 0.054688-0.25781h-0.58984c-3.3672 0.011719-8.1211 0.30469-11.832 0.72266-6.2695 0.71094-8.3672-1.2422-9.0625-2.4688-0.74609-1.3164-0.55078-2.9336 0.51953-4.3281 0.11328-0.14844 0.26172-0.26562 0.43359-0.33984 1.1094-0.48828 3.4453-1.0703 5.1523-1.4023 0.011718-0.003906 0.019531-0.003906 0.03125-0.007812l23.277-3.8789c3.8438-0.62109 6.3398 0.10156 8.3398 0.67969 0.40625 0.11719 0.79297 0.23047 1.168 0.32422 0.80469 0.20312 1.5273 0.41406 2.2305 0.61719 3.5 1.0195 5.8164 1.6914 11.41-0.80859 0.55859-0.25 1.2188 0 1.4688 0.5625 0.25 0.55859 0 1.2188-0.5625 1.4688-6.3438 2.8359-9.2539 1.9883-12.941 0.91406-0.67969-0.19922-1.3867-0.40234-2.1523-0.59766-0.41406-0.10547-0.81641-0.22266-1.2461-0.34766-1.8828-0.54688-4.0156-1.1641-7.3594-0.62109l-23.254 3.875c-1.6875 0.33203-3.4805 0.80078-4.3945 1.1445-0.26953 0.42578-0.52344 1.0586-0.1875 1.6523 0.54688 0.96875 2.6406 1.832 6.8789 1.3516 3.8438-0.43359 8.582-0.72266 12.074-0.73828 0.34766 0 1.1602 0.003906 1.8516 0.007812 0.23047-0.21875 0.48828-0.41016 0.77734-0.58203 3.1758-1.8984 8.7617-0.38281 13.746 1.1875 0.49609 0.15625 0.92969 0.29297 1.2734 0.39062 0.58984 0.17188 0.92969 0.78906 0.75781 1.3789-0.17188 0.58984-0.78516 0.92969-1.3789 0.75781-0.36719-0.10547-0.80859-0.24609-1.3203-0.40625-3.0352-0.95703-9.3516-2.9453-11.938-1.3984-0.57422 0.34375-0.90234 0.83984-1.043 1.5625-0.24609 1.3008 0.76953 2.2734 3.0156 2.8984 4.7461 1.3203 8.9062 2.8125 14.07 4.7969 6.8867 2.3555 14.148-2.3438 19.453-5.7734 0.51563-0.33203 1.2031-0.18359 1.5352 0.32813 0.33203 0.51562 0.1875 1.2031-0.32812 1.5352zm-25.719 37.301 2.1094 10.215c0.09375 0.46094-0.10937 0.92969-0.51172 1.1758-0.17969 0.10938-0.37891 0.16016-0.57812 0.16016-0.25 0-0.49609-0.085937-0.69922-0.25l-8.6992-7.0664c-1.9922 0.52734-4.0625 0.79688-6.1562 0.79688-11.859 0-21.508-8.5859-21.508-19.141 0-10.555 9.6484-19.141 21.508-19.141s21.508 8.5859 21.508 19.141c0 5.3789-2.5312 10.484-6.9727 14.109zm4.75-14.109c0-9.3281-8.6523-16.918-19.285-16.918-10.637 0-19.285 7.5898-19.285 16.918s8.6523 16.918 19.285 16.918c2.0859 0 4.1367-0.28906 6.1016-0.86719 0.10156-0.03125 0.20703-0.046876 0.3125-0.046876 0.25391 0 0.5 0.085938 0.69922 0.25l6.7266 5.4648-1.6172-7.8359c-0.085938-0.41797 0.074218-0.84766 0.41406-1.1094 4.2266-3.2188 6.6484-7.875 6.6484-12.777zm-5.9766-3.3477c0.41797 3.8789-1.457 9.875-12.75 16.426-0.17188 0.10156-0.36328 0.14844-0.55859 0.14844-0.19141 0-0.38672-0.050781-0.55859-0.14844-11.293-6.5508-13.168-12.547-12.75-16.426 0.36328-3.3984 2.5156-6.1328 5.4766-6.9648 2.7188-0.76172 5.5156 0.19922 7.8281 2.6523 2.3164-2.4531 5.1133-3.418 7.8281-2.6523 2.9609 0.83203 5.1133 3.5664 5.4766 6.9648zm-2.2109 0.23828c-0.26953-2.4883-1.7852-4.4766-3.8711-5.0625-2.1523-0.60547-4.4648 0.45312-6.3477 2.9023-0.21094 0.27344-0.53516 0.43359-0.88281 0.43359-0.34375 0-0.67188-0.16016-0.88281-0.43359-1.5352-1.9961-3.3555-3.0703-5.1445-3.0703-0.40625 0-0.80859 0.054688-1.2031 0.16797-2.082 0.58594-3.6016 2.5742-3.8711 5.0625-0.47656 4.4492 3.457 9.3828 11.098 13.938 7.6406-4.5547 11.574-9.4883 11.098-13.938zm2.4727 30.848c-3.7109 0.42187-8.4648 0.71094-11.832 0.72266h-0.58984c0.019531-0.085938 0.039062-0.17188 0.054687-0.25781 0.22656-1.1914 0.23438-4.1133-4.6055-5.457-4.668-1.2969-8.7734-2.7734-13.887-4.7383-0.011719-0.003907-0.023438-0.007813-0.035157-0.011719-3.4727-1.1953-7.2188-1-11.449 0.58984-3.4727 1.3047-6.6875 3.3047-9.9492 5.4141-0.51562 0.33203-0.66406 1.0195-0.32812 1.5352 0.33203 0.51563 1.0195 0.66406 1.5352 0.32813 5.3047-3.4297 12.566-8.1289 19.453-5.7734 5.1641 1.9805 9.3242 3.4766 14.07 4.7969 2.25 0.625 3.2656 1.6016 3.0156 2.8984-0.13672 0.72656-0.46875 1.2227-1.043 1.5625-2.5859 1.5469-8.9023-0.44141-11.938-1.3984-0.51172-0.16016-0.94922-0.30078-1.3203-0.40625-0.58984-0.17188-1.207 0.16797-1.3789 0.75781-0.17188 0.58984 0.16797 1.207 0.75781 1.3789 0.34375 0.10156 0.77344 0.23438 1.2734 0.39062 4.9844 1.5703 10.57 3.0859 13.746 1.1875 0.28516-0.17188 0.54688-0.36719 0.77734-0.58203 0.69141 0.007812 1.5 0.011718 1.8516 0.007812 3.4922-0.011719 8.2344-0.30078 12.074-0.73828 4.2344-0.48047 6.3281 0.38281 6.8789 1.3516 0.33594 0.59375 0.082032 1.2266-0.1875 1.6523-0.91406 0.34375-2.707 0.8125-4.3945 1.1445l-23.258 3.875c-3.3477 0.54297-5.4805-0.074218-7.3594-0.62109-0.42969-0.125-0.83203-0.24219-1.2461-0.34375-0.76562-0.19141-1.4688-0.39844-2.1523-0.59766-3.6875-1.0742-6.5977-1.9219-12.941 0.91406-0.55859 0.25-0.8125 0.90625-0.5625 1.4688 0.25 0.55859 0.90625 0.8125 1.4688 0.5625 5.5977-2.5039 7.9102-1.8281 11.41-0.80859 0.69922 0.20312 1.4258 0.41406 2.2305 0.61719 0.375 0.09375 0.76172 0.20703 1.168 0.32422 1.457 0.42188 3.1719 0.92188 5.4805 0.92188 0.86328 0 1.8125-0.070312 2.8594-0.23828l23.277-3.8789c0.011719-0.003907 0.019531-0.003907 0.03125-0.007813 1.7031-0.33594 4.043-0.91406 5.1523-1.4023 0.17188-0.074218 0.32031-0.19141 0.43359-0.33984 1.0703-1.3945 1.2656-3.0117 0.51953-4.3281-0.69141-1.2266-2.793-3.1758-9.0625-2.4688z" fill="#fff"></path>
</svg>